<svg width="15" height="11" viewBox="0 0 15 11" fill="none" xmlns="http://www.w3.org/2000/svg">
<path d="M0 10C0 10.4141 0.335859 10.75 0.75 10.75H14.25C14.6641 10.75 15 10.4141 15 10V2.5H0V10ZM10.5 5.125C10.5 4.91781 10.6678 4.75 10.875 4.75H13.125C13.3322 4.75 13.5 4.91781 13.5 5.125V5.875C13.5 6.08219 13.3322 6.25 13.125 6.25H10.875C10.6678 6.25 10.5 6.08219 10.5 5.875V5.125ZM10.5 7.9375C10.5 7.83391 10.5839 7.75 10.6875 7.75H13.3125C13.4161 7.75 13.5 7.83391 13.5 7.9375V8.3125C13.5 8.41609 13.4161 8.5 13.3125 8.5H10.6875C10.5839 8.5 10.5 8.41609 10.5 8.3125V7.9375ZM1.5 5.6875C1.5 5.58391 1.58391 5.5 1.6875 5.5H8.8125C8.91609 5.5 9 5.58391 9 5.6875V6.0625C9 6.16609 8.91609 6.25 8.8125 6.25H1.6875C1.58391 6.25 1.5 6.16609 1.5 6.0625V5.6875ZM1.5 7.9375C1.5 7.83391 1.58391 7.75 1.6875 7.75H5.8125C5.91609 7.75 6 7.83391 6 7.9375V8.3125C6 8.41609 5.91609 8.5 5.8125 8.5H1.6875C1.58391 8.5 1.5 8.41609 1.5 8.3125V7.9375ZM14.625 0.25H0.375C0.167812 0.25 0 0.417812 0 0.625V1.75H15V0.625C15 0.417812 14.8322 0.25 14.625 0.25Z" fill="#131313"/>
</svg>
