<?xml version="1.0" encoding="UTF-8"?>
<!DOCTYPE svg PUBLIC "-//W3C//DTD SVG 1.1//EN" "http://www.w3.org/Graphics/SVG/1.1/DTD/svg11.dtd">
<!-- Creator: CorelDRAW X7 -->
<svg xmlns="http://www.w3.org/2000/svg" xml:space="preserve" width="2.11335in" height="3.00694in" version="1.1" style="shape-rendering:geometricPrecision; text-rendering:geometricPrecision; image-rendering:optimizeQuality; fill-rule:evenodd; clip-rule:evenodd"
viewBox="0 0 95 134"
 xmlns:xlink="http://www.w3.org/1999/xlink">
 <defs>
  <style type="text/css">
   <![CDATA[
    .str0 {stroke:#373435;stroke-width:0.310558}
    .fil1 {fill:none}
    .fil2 {fill:black}
    .fil3 {fill:#F6F6F6}
    .fil0 {fill:black;fill-rule:nonzero}
   ]]>
  </style>
    <clipPath id="id0" style="clip-rule:nonzero">
     <rect x="27" y="1" width="40.8625" height="32.9535"/>
    </clipPath>
    <clipPath id="id1" style="clip-rule:nonzero">
     <rect x="27" y="95" width="40.8625" height="32.3158"/>
    </clipPath>
 </defs>
 <g id="Layer_x0020_1">
  <metadata id="CorelCorpID_0Corel-Layer"/>
  <g id="_2515576410224">
   <path class="fil0" d="M10 26l0 1 -3 1 3 1 0 2 -5 0 0 -1 4 0 -3 -1 0 -1 3 -1 -4 0 0 -1 5 0zm0 6l0 1 -5 0 0 -1 5 0zm0 2l0 2 -3 1 3 0 0 1 -5 0 0 -1 4 -2 -4 0 0 -1 5 0zm0 5l0 2 -5 0 0 -2 5 0zm0 6l-1 0c0,0 0,-1 0,-1 0,0 0,0 0,0 0,-1 0,-1 0,-1 0,0 0,0 0,0 0,0 0,0 -1,0 0,0 0,0 0,0l0 1c0,0 0,1 0,1 -1,0 -1,0 -1,0 -1,0 -1,0 -1,0 -1,-1 -1,-1 -1,-2 0,0 0,0 0,0 0,-1 0,-1 1,-1l1 0c-1,0 -1,0 -1,1 0,0 0,0 0,0 0,1 0,1 0,1 0,0 0,0 1,0 0,0 0,0 0,0 0,0 0,0 0,-1l0 0c0,0 1,-1 1,-1 0,0 0,0 1,0 0,0 0,0 1,0 0,0 0,1 0,1 0,1 0,1 0,1 0,0 0,1 0,1zm0 1l0 4 -1 0 0 -2 -4 0 0 -1 4 0 0 -1 1 0zm-2 6c0,0 0,0 0,1 0,0 0,0 1,0 0,0 0,0 0,0 0,-1 0,-1 0,-1l0 0 -1 0 0 0zm-1 0l-2 0 0 -2 5 0 0 2c0,1 0,1 0,1 0,1 -1,1 -1,1 -1,0 -1,0 -1,0 0,0 0,-1 0,-1 -1,0 -1,0 -1,0 0,1 0,1 0,1l-2 0 0 -1 1 0c1,0 1,-1 1,-1 0,0 0,0 0,0l0 0zm3 3l0 1 -2 1 2 1 0 1 -3 -2 -2 0 0 -1 2 0 3 -1zm-1 9c0,-1 0,-1 0,-1 0,0 -1,0 -1,0 -1,0 -1,0 -2,0 0,0 0,0 0,1 0,0 0,0 0,1 1,0 1,0 2,0 0,0 1,0 1,0 0,-1 0,-1 0,-1zm1 0c0,0 0,1 -1,1 0,1 -1,1 -1,1 -1,0 -2,0 -2,-1 -1,0 -1,-1 -1,-1 0,-1 0,-2 1,-2 0,0 1,-1 2,-1 0,0 1,1 1,1 1,0 1,1 1,2zm0 3l0 3 -1 0 0 -2 -1 0 0 2 -1 0 0 -2 -2 0 0 -1 5 0zm0 6l0 3 -1 0 0 -2 -1 0 0 2 -1 0 0 -2 -1 0 0 2 -1 0 0 -3 5 0zm0 4l0 2 -3 1 3 0 0 1 -5 0 0 -1 4 -1 -4 0 0 -2 5 0zm0 5l0 1 -3 1 3 2 0 1 -5 -2 0 -1 5 -2zm0 5l0 2 -5 0 0 -2 5 0zm-2 4c0,1 0,1 0,1 0,0 0,0 1,0 0,0 0,0 0,0 0,0 0,0 0,-1l0 0 -1 0 0 0zm-1 0l-2 0 0 -1 5 0 0 1c0,1 0,1 0,2 0,0 -1,0 -1,0 -1,0 -1,0 -1,0 0,0 0,0 0,-1 -1,0 -1,1 -1,1 0,0 0,0 0,0l-2 1 0 -2 1 0c1,0 1,0 1,0 0,-1 0,-1 0,-1l0 0zm2 5c0,0 0,0 0,0 0,-1 -1,-1 -1,-1 -1,0 -1,0 -2,1 0,0 0,0 0,0 0,1 0,1 0,1 1,0 1,1 2,1 0,0 1,-1 1,-1 0,0 0,0 0,-1zm1 0c0,1 0,2 -1,2 0,1 -1,1 -1,1 -1,0 -2,0 -2,-1 -1,0 -1,-1 -1,-2 0,0 0,-1 1,-1 0,-1 1,-1 2,-1 0,0 1,0 1,1 1,0 1,1 1,1zm0 4l0 1 -3 2 3 0 0 1 -5 0 0 -2 4 -1 -4 0 0 -1 5 0zm0 5l0 1 -3 1 3 1 0 2 -5 0 0 -1 4 0 -3 -1 0 -1 3 -1 -4 0 0 -1 5 0zm0 6l0 3 -1 0 0 -2 -1 0 0 2 -1 0 0 -2 -1 0 0 2 -1 0 0 -3 5 0zm0 4l0 1 -3 2 3 0 0 1 -5 0 0 -1 4 -2 -4 0 0 -1 5 0zm0 5l0 4 -1 0 0 -2 -4 0 0 -1 4 0 0 -1 1 0z"/>
   <g style="clip-path:url(#id0)">
    <image x="27" y="1" width="40.8739" height="32.964" xlink:href="KEPA LAYOUT_Images\KEPA LAYOUT_ImgID1.png"/>
   </g>
   <path class="fil0" d="M89 36l0 1 -2 0 2 2 0 1 -2 -2 -3 2 0 -1 2 -2 -2 0 0 -1 5 0zm0 5l0 3 -1 0 0 -2 -1 0 0 2 -1 0 0 -2 -1 0 0 2 -1 0 0 -3 5 0zm0 4l0 2c0,0 0,1 0,1 -1,0 -1,1 -2,1 0,0 0,-1 -1,-1 0,0 0,-1 0,-1l0 -1 -2 0 0 -1 5 0zm-1 1l-1 0 0 1c0,0 0,0 0,0 0,0 0,0 0,0 1,0 1,0 1,0 0,0 0,0 0,0l0 -1zm-3 6l0 -2 -1 0 0 -1 5 1 0 2 -5 1 0 -1 1 0zm1 -1l0 1 2 -1 -2 0zm3 5l0 1 -3 1 3 0 0 2 -3 0 3 1 0 1 -5 -1 0 -1 4 -1 -4 -1 0 -1 5 -1zm-4 10l0 -2 -1 0 0 -2 5 2 0 2 -5 1 0 -1 1 0zm1 -2l0 1 2 0 -2 -1zm3 7l-1 0c0,0 0,-1 0,-1 0,0 0,0 0,-1 0,0 0,0 0,0 0,0 0,0 0,0 0,0 0,0 -1,0 0,0 0,0 0,0l0 1c0,0 0,1 0,1 -1,0 -1,0 -1,0 -1,0 -1,0 -1,0 -1,-1 -1,-1 -1,-2 0,0 0,0 0,0 0,-1 0,-1 1,-1l1 0c-1,0 -1,0 -1,1 0,0 0,0 0,0 0,1 0,1 0,1 0,0 0,0 1,0 0,0 0,0 0,0 0,0 0,0 0,-1l0 0c0,-1 1,-1 1,-1 0,0 0,0 1,0 0,0 0,0 1,0 0,0 0,1 0,1 0,1 0,1 0,1 0,0 0,1 0,1zm0 1l0 4 -1 0 0 -2 -4 0 0 -1 4 0 0 -1 1 0zm0 4l0 3 -1 0 0 -1 -1 0 0 1 -1 0 0 -1 -1 0 0 2 -1 0 0 -4 5 0zm-2 9c0,0 0,0 0,0 0,0 1,0 1,0 0,0 0,0 0,0 0,0 0,0 0,0l0 -1 -1 0 0 1zm-2 0c0,0 0,0 0,0 0,0 1,0 1,0 0,0 0,0 0,0 0,0 0,0 0,0l0 -1 -1 0 0 1zm2 1c0,0 0,0 -1,0 0,0 0,0 0,0 -1,0 -1,0 -1,0 -1,0 -1,-1 -1,-1l0 -2 5 0 0 1c0,1 0,2 0,2 0,0 -1,0 -1,0 0,0 -1,0 -1,0 0,0 0,0 0,0zm-2 4l0 -2 -1 0 0 -1 5 2 0 1 -5 2 0 -2 1 0zm1 -1l0 1 2 -1 -2 0zm-1 7c-1,0 -1,0 -1,-1 0,0 0,0 0,-1 0,0 0,-1 1,-1 0,-1 1,-1 2,-1 0,0 1,0 1,1 1,0 1,1 1,1 0,1 0,1 0,1 0,1 0,1 0,1l-1 0c0,0 0,0 0,-1 0,0 0,0 0,0 0,-1 0,-1 0,-2 0,0 -1,0 -1,0 -1,0 -1,0 -2,0 0,1 0,1 0,1 0,1 0,1 0,1 0,0 0,0 0,0l1 0 0 -1 1 0 0 2 -2 0z"/>
   <g style="clip-path:url(#id1)">
    <image x="27" y="95" width="40.8739" height="32.3248" xlink:href="KEPA LAYOUT_Images\KEPA LAYOUT_ImgID2.png"/>
   </g>
   <path class="fil0" d="M14 128l0 0 0 2 2 0 0 -2 1 0 0 4 -1 0 0 -2 -2 0 0 2 0 0 0 -4zm5 2c0,0 -1,0 -1,0 0,0 0,0 0,1 0,0 0,0 0,0 0,1 1,1 1,1 0,0 0,0 0,-1 1,0 1,0 1,0 0,-1 0,-1 -1,-1 0,0 0,0 0,0zm0 -1c0,0 1,0 1,1 0,0 0,0 0,1 0,0 0,1 0,1 0,0 -1,0 -1,0 -1,0 -1,0 -1,0 0,0 -1,-1 -1,-1 0,-1 1,-1 1,-1 0,-1 0,-1 1,-1zm2 0l0 0 1 0 0 1 -1 0 0 1c0,0 1,1 1,1 0,0 0,0 0,0l0 0 0 0 0 0c0,0 -1,0 -1,0 0,0 0,0 0,-1l0 -1 0 0 0 -1 0 0 0 0 0 0zm2 -1l1 0 0 4 -1 0 0 -4zm2 1l0 0 0 3 0 0 0 -3zm0 -1l0 0 0 1 0 0 0 -1zm4 2l0 2 -1 0 0 -2c0,0 0,0 0,0 0,0 0,0 -1,0 0,0 0,0 0,0 0,0 0,0 0,1l0 1 -1 0 0 -3 1 0 0 1c0,0 0,-1 0,-1 0,0 0,0 1,0 0,0 0,0 0,1 1,0 1,0 1,0zm3 1l0 0 -2 0c0,0 0,0 0,1 0,0 1,0 1,0 0,0 0,0 1,0 0,0 0,0 0,0l0 0c0,0 0,0 0,0 -1,0 -1,0 -1,0 -1,0 -1,0 -1,0 0,0 -1,-1 -1,-1 0,-1 1,-1 1,-1 0,-1 0,-1 1,-1 0,0 1,0 1,1 0,0 0,0 0,1zm0 -1c0,0 0,0 -1,0 0,0 0,0 0,0 0,0 -1,0 -1,0 0,0 0,0 0,0l2 0zm1 1l1 0 0 1 -1 0 0 -1zm0 -2l1 0 0 1 -1 0 0 -1z"/>
   <path class="fil0" d="M38 130c0,0 0,-1 0,-1 0,0 0,0 -1,0 0,0 0,0 0,0 0,0 0,1 0,1 0,1 0,1 0,1 0,0 0,1 0,1 1,0 1,-1 1,-1 0,0 0,0 0,-1zm1 0c0,1 0,1 0,2 -1,0 -1,0 -2,0 0,0 -1,0 -1,0 0,-1 0,-1 0,-2 0,0 0,-1 0,-1 0,-1 1,-1 1,-1 1,0 1,0 2,1 0,0 0,1 0,1zm1 2l0 -1c0,0 0,0 0,0 0,1 1,1 1,1 0,0 0,-1 0,-1 1,0 1,0 1,0 0,0 0,0 -1,0 0,0 0,0 0,0 0,0 -1,0 -1,0 0,-1 0,-1 0,-1 0,-1 0,-1 0,-1 0,-1 1,-1 1,-1 1,0 1,0 1,1 1,0 1,1 1,1 0,1 0,1 -1,2 0,0 -1,0 -1,0 0,0 0,0 -1,0 0,0 0,0 0,0zm1 -2c0,0 0,0 1,0 0,0 0,0 0,0 0,-1 0,-1 0,-1 -1,0 -1,0 -1,0 0,0 0,0 0,0 0,0 0,0 0,1 0,0 0,0 0,0 0,0 0,0 0,0zm5 0c0,0 0,-1 -1,-1 0,0 0,0 0,0 0,0 0,0 0,0 -1,0 -1,1 -1,1 0,1 0,1 1,1 0,0 0,1 0,1 0,0 0,-1 0,-1 1,0 1,0 1,-1zm1 0c0,1 -1,1 -1,2 0,0 0,0 -1,0 -1,0 -1,0 -1,0 0,-1 -1,-1 -1,-2 0,0 1,-1 1,-1 0,-1 0,-1 1,-1 1,0 1,0 1,1 0,0 1,1 1,1zm2 0c0,0 -1,0 -1,1 0,0 0,0 0,0 0,0 0,0 0,0 0,1 1,1 1,1 0,0 0,0 0,-1 0,0 0,0 0,0 0,0 0,0 0,0 0,-1 0,-1 0,-1zm-1 0c0,0 0,0 0,0 -1,0 -1,-1 -1,-1 0,0 0,0 1,0 0,-1 0,-1 1,-1 0,0 1,0 1,1 0,0 0,0 0,0 0,0 0,1 0,1 0,0 0,0 0,0 0,0 0,0 0,0 0,1 0,1 0,1 0,0 0,1 0,1 0,0 -1,0 -1,0 -1,0 -1,0 -1,0 -1,0 -1,-1 -1,-1 0,0 0,0 0,-1 1,0 1,0 1,0zm0 -1c0,1 0,1 0,1 1,0 1,0 1,0 0,0 0,0 0,0 0,0 0,0 0,-1 0,0 0,0 0,0 0,0 0,0 0,0 0,0 0,0 -1,0 0,0 0,0 0,0zm3 1l2 0 0 1 -2 0 0 -1zm4 0c1,0 1,0 1,0 0,1 0,1 0,1 0,0 0,1 0,1 0,0 -1,0 -1,0 -1,0 -1,0 -1,0 0,0 0,0 -1,0l0 -1c1,0 1,0 1,0 0,0 0,1 0,1 1,0 1,-1 1,-1 0,0 0,0 0,0 0,0 0,0 0,0 0,0 0,-1 -1,-1l0 0 0 0 0 0c1,0 1,0 1,0 0,0 0,0 0,-1 0,0 0,0 0,0 0,0 0,0 -1,0 0,0 0,0 0,0 0,0 0,0 -1,0l0 -1c1,0 1,0 1,0 0,0 0,0 1,0 0,0 1,0 1,1 0,0 0,0 0,0 0,0 0,1 0,1 0,0 0,0 -1,0zm4 0c1,0 1,0 1,0 0,1 0,1 0,1 0,0 0,1 0,1 -1,0 -1,0 -2,0 0,0 0,0 0,0 0,0 -1,0 -1,0l0 -1c0,0 0,0 1,0 0,0 0,1 0,1 1,0 1,-1 1,-1 0,0 0,0 0,0 0,0 0,0 0,0 0,0 -1,-1 -1,-1l0 0 0 0 0 0c0,0 1,0 1,0 0,0 0,0 0,-1 0,0 0,0 0,0 0,0 0,0 -1,0 0,0 0,0 0,0 0,0 -1,0 -1,0l0 -1c0,0 1,0 1,0 0,0 0,0 0,0 1,0 1,0 2,1 0,0 0,0 0,0 0,0 0,1 0,1 0,0 0,0 -1,0zm4 0c0,0 1,0 1,0 0,1 0,1 0,1 0,0 0,1 -1,1 0,0 0,0 -1,0 0,0 0,0 0,0 -1,0 -1,0 -1,0l0 -1c0,0 0,0 0,0 1,0 1,1 1,1 0,0 1,-1 1,-1 0,0 0,0 0,0 0,0 0,0 0,0 -1,0 -1,-1 -1,-1l0 0 0 0 0 0c0,0 0,0 1,0 0,0 0,0 0,-1 0,0 0,0 0,0 -1,0 -1,0 -1,0 0,0 0,0 0,0 -1,0 -1,0 -1,0l0 -1c0,0 0,0 1,0 0,0 0,0 0,0 1,0 1,0 1,1 1,0 1,0 1,0 0,0 0,1 0,1 -1,0 -1,0 -1,0zm2 0l1 0 0 1 -1 0 0 -1zm4 0c0,0 1,0 1,0 0,1 0,1 0,1 0,0 0,1 -1,1 0,0 0,0 -1,0 0,0 0,0 0,0 -1,0 -1,0 -1,0l0 -1c0,0 0,0 1,0 0,0 0,1 0,1 0,0 1,-1 1,-1 0,0 0,0 0,0 0,0 0,0 0,0 0,0 -1,-1 -1,-1l0 0 0 0 0 0c0,0 1,0 1,0 0,0 0,0 0,-1 0,0 0,0 0,0 0,0 -1,0 -1,0 0,0 0,0 0,0 -1,0 -1,0 -1,0l0 -1c0,0 1,0 1,0 0,0 0,0 0,0 1,0 1,0 1,1 1,0 1,0 1,0 0,0 0,1 0,1 0,0 -1,0 -1,0zm4 0c0,0 0,0 1,0 0,1 0,1 0,1 0,0 0,1 -1,1 0,0 0,0 -1,0 0,0 0,0 -1,0 0,0 0,0 0,0l0 -1c0,0 0,0 0,0 0,0 1,1 1,1 0,0 0,-1 0,-1 1,0 1,0 1,0 0,0 0,0 -1,0 0,0 0,-1 0,-1l-1 0 0 0 1 0c0,0 0,0 0,0 1,0 1,0 1,-1 0,0 0,0 -1,0 0,0 0,0 0,0 0,0 0,0 -1,0 0,0 0,0 0,0l0 -1c0,0 0,0 1,0 0,0 0,0 0,0 1,0 1,0 1,1 1,0 1,0 1,0 0,0 0,1 -1,1 0,0 0,0 0,0zm3 1l1 0 0 1 -2 0 0 -1 1 -1c0,0 0,0 0,0 0,0 0,0 0,0 0,-1 0,-1 0,-1 0,0 0,0 0,0 0,0 -1,0 -1,0 0,0 0,0 0,0l0 0c0,-1 0,-1 0,-1 1,0 1,0 1,0 0,0 1,0 1,1 0,0 0,0 0,0 0,1 0,1 0,1 0,0 0,0 0,1l-1 0zm4 -1c0,0 0,-1 0,-1 0,0 0,0 0,0 0,0 -1,0 -1,0 0,0 0,1 0,1 0,1 0,1 0,1 0,0 1,1 1,1 0,0 0,-1 0,-1 0,0 0,0 0,-1zm1 0c0,1 0,1 0,2 0,0 -1,0 -1,0 -1,0 -1,0 -1,0 -1,-1 -1,-1 -1,-2 0,0 0,-1 1,-1 0,-1 0,-1 1,-1 0,0 1,0 1,1 0,0 0,1 0,1z"/>
   <rect class="fil1 str0" width="94.1932" height="134.153"/>
   <g>
    <g>
     <path class="fil2" d="M15 14l0 1 0 3 -1 2c0,0 0,0 0,0 -1,0 -2,0 -2,0l-1 0 -1 -4c0,0 0,0 0,0 0,0 0,0 0,0 0,-1 0,0 0,-1 0,0 0,-1 0,-1 0,0 -1,0 0,-1 0,0 0,0 1,0l4 0c0,0 1,0 1,0 0,1 0,1 0,1 0,0 -1,0 -1,0l0 0z"/>
     <path class="fil2" d="M9 18c0,0 -1,-1 -1,-1 0,0 0,-1 0,-1 0,0 0,0 0,0l-1 0 -1 4c0,0 0,0 0,0 0,-1 0,-5 0,-5 0,0 0,-1 0,-1 0,0 0,-1 0,-1 1,0 1,0 2,0 1,0 1,0 1,2 1,2 1,4 1,5 0,0 -1,-2 -1,-2z"/>
     <path class="fil2" d="M14 9c0,1 -4,2 -5,2l0 2 -3 0 1 -4 7 0z"/>
     <path class="fil2" d="M14 12c0,0 -1,1 -1,1 0,0 -1,0 -2,0l0 -2c1,0 2,0 2,0l1 0 0 1z"/>
     <path class="fil2" d="M10 7c0,1 0,2 -1,2 -1,0 -2,-1 -1,-2 0,0 1,0 2,0z"/>
     <polygon class="fil3" points="11,14 11,15 11,14 11,14 "/>
     <polygon class="fil3" points="15,15 14,14 14,14 15,14 "/>
     <path class="fil3" d="M11 16c0,0 0,0 0,0l0 -1 0 0 0 1z"/>
     <path class="fil3" d="M12 15c0,1 0,1 0,0l0 0 0 0 0 0z"/>
     <polygon class="fil3" points="15,15 15,16 14,16 14,15 "/>
     <path class="fil3" d="M14 15l-1 0 0 0c0,0 0,0 0,0l1 0z"/>
     <path class="fil3" d="M12 14c0,0 0,1 0,0l0 0 0 0 0 0z"/>
     <polygon class="fil3" points="12,17 12,17 12,16 12,16 "/>
     <polygon class="fil3" points="14,14 13,14 13,14 14,14 "/>
     <polygon class="fil3" points="13,17 13,17 13,16 13,16 "/>
     <path class="fil3" d="M11 17l0 -1 0 0c0,0 0,0 0,1 0,0 0,0 0,0z"/>
     <polygon class="fil3" points="14,16 14,17 14,17 14,16 "/>
     <polygon class="fil3" points="12,18 11,18 11,17 11,17 "/>
     <polygon class="fil3" points="12,18 12,18 12,17 12,17 "/>
     <path class="fil3" d="M14 17l0 1 0 0 0 -1c0,0 0,0 0,0 0,0 0,0 0,0z"/>
     <polygon class="fil3" points="13,18 13,18 13,17 13,17 "/>
     <path class="fil3" d="M12 19l-1 0c0,0 0,0 0,0 0,0 0,-1 0,-1 0,0 0,0 1,0l0 1z"/>
     <polygon class="fil3" points="12,19 12,19 12,18 12,18 "/>
     <polygon class="fil3" points="13,19 13,19 13,18 13,18 "/>
     <polygon class="fil3" points="14,18 14,19 14,19 14,18 "/>
     <path class="fil3" d="M12 20l-1 0 0 -1 1 0c0,0 0,0 0,1z"/>
     <polygon class="fil3" points="13,20 13,20 13,19 13,19 13,19 13,19 "/>
     <polygon class="fil3" points="12,20 12,20 12,19 12,19 "/>
     <polygon class="fil3" points="14,20 14,20 14,19 14,19 "/>
     <polygon class="fil3" points="13,15 13,15 13,15 13,15 "/>
    </g>
    <g>
     <path class="fil2" d="M80 116l0 0 0 4 1 1c0,0 0,0 0,0 1,0 1,0 2,0l1 0 0 -4c0,0 0,0 1,0 0,0 0,0 0,0 0,0 0,0 0,0 0,-1 0,-2 0,-2 0,0 0,0 0,0 0,-1 0,-1 -1,-1l-4 0c0,0 -1,0 -1,1 0,0 0,0 0,0 0,0 1,0 1,0l0 1z"/>
     <path class="fil2" d="M86 119c0,0 0,0 1,0 0,-1 0,-1 0,-2 0,0 0,0 0,0l0 0 2 4c0,0 0,0 0,0 0,0 0,-4 0,-5 0,0 0,0 0,-1 0,0 0,-1 0,-1 -1,0 -2,0 -3,0 0,0 0,0 0,2 -1,2 -1,4 -1,5 0,0 1,-2 1,-2z"/>
     <path class="fil2" d="M81 111c0,0 4,1 4,1l1 2 3 0 -1 -4 -7 1z"/>
     <path class="fil2" d="M80 113c1,1 2,1 2,1 0,0 1,0 1,0l1 -2c-1,0 -2,0 -2,0l-1 0 -1 1z"/>
     <path class="fil2" d="M85 108c0,1 0,2 1,2 1,0 2,-1 1,-2 0,0 -1,0 -2,0z"/>
     <polygon class="fil3" points="84,116 84,116 84,115 84,115 "/>
     <polygon class="fil3" points="80,116 81,116 81,115 80,115 "/>
     <path class="fil3" d="M83 117c1,0 1,0 1,0l0 -1 0 0 -1 1z"/>
     <path class="fil3" d="M82 117c1,0 1,0 1,0l0 -1 -1 0 0 1z"/>
     <polygon class="fil3" points="80,116 80,117 81,117 81,116 "/>
     <path class="fil3" d="M81 116l0 1 1 0c0,-1 0,-1 0,-1l-1 0z"/>
     <path class="fil3" d="M82 116c1,0 1,0 1,0l0 -1 -1 0 0 1z"/>
     <polygon class="fil3" points="82,118 83,118 83,117 82,117 "/>
     <polygon class="fil3" points="81,116 82,116 82,115 81,115 "/>
     <polygon class="fil3" points="81,118 82,118 82,117 81,117 "/>
     <path class="fil3" d="M84 118l0 -1 -1 0c0,0 0,1 0,1 0,0 1,0 1,0z"/>
     <polygon class="fil3" points="80,117 81,118 81,118 81,117 "/>
     <polygon class="fil3" points="83,119 84,119 84,118 83,118 "/>
     <polygon class="fil3" points="82,119 83,119 83,118 82,118 "/>
     <path class="fil3" d="M81 118l0 1 0 0 0 -1c0,0 0,0 0,0 0,0 0,0 0,0z"/>
     <polygon class="fil3" points="82,119 82,119 82,118 82,118 "/>
     <path class="fil3" d="M83 120l1 0c0,0 0,0 0,0 0,0 0,-1 0,-1 0,0 -1,0 -1,0l0 1z"/>
     <polygon class="fil3" points="82,120 83,120 83,119 82,119 "/>
     <polygon class="fil3" points="82,120 82,120 82,119 82,119 "/>
     <polygon class="fil3" points="81,119 81,120 81,120 81,119 "/>
     <path class="fil3" d="M83 121l1 0 0 -1 -1 0c0,0 0,1 0,1z"/>
     <polygon class="fil3" points="82,121 82,121 82,121 82,120 82,120 82,120 "/>
     <polygon class="fil3" points="82,121 83,121 83,120 82,120 "/>
     <polygon class="fil3" points="81,121 81,121 81,120 81,120 "/>
     <polygon class="fil3" points="82,117 82,117 82,116 82,116 "/>
    </g>
   </g>
  </g>
 </g>
</svg>
